<?xml version="1.0" standalone="no"?>
<!DOCTYPE svg PUBLIC "-//W3C//DTD SVG 20010904//EN"
 "http://www.w3.org/TR/2001/REC-SVG-20010904/DTD/svg10.dtd">
<svg version="1.0" xmlns="http://www.w3.org/2000/svg"
 width="577.000000pt" height="330.000000pt" viewBox="0 0 577.000000 330.000000"
 preserveAspectRatio="xMidYMid meet">

<g transform="translate(0.000000,330.000000) scale(0.100000,-0.100000)"
fill="#000000" stroke="none">
<path d="M0 2341 l0 -958 53 -20 c159 -62 287 -136 316 -183 14 -24 14 -24
-16 3 l-30 28 2 -24 c2 -13 15 -43 31 -66 24 -38 36 -92 22 -106 -7 -7 -98 27
-98 37 0 4 -6 8 -13 8 -7 0 -29 16 -48 36 -18 19 -56 49 -84 67 -27 17 -56 37
-63 45 -8 7 -27 19 -43 27 l-29 15 0 -508 0 -509 29 -40 c15 -21 43 -67 62
-101 18 -34 39 -62 46 -62 7 0 10 -6 7 -15 -5 -13 15 -15 150 -15 125 0 154 3
150 13 -3 8 2 14 11 14 9 0 14 -6 11 -14 -4 -11 44 -13 268 -13 l274 0 4 58
c2 31 1 62 -3 67 -4 6 -8 62 -9 125 -4 166 -6 205 -24 410 -27 319 -47 599
-51 755 -3 82 -10 197 -16 255 -6 58 -14 186 -19 285 -6 138 -7 103 -3 -150 5
-365 8 -440 16 -506 5 -31 4 -37 -2 -19 -5 14 -10 43 -11 65 -2 39 -3 39 -10
10 -5 -18 -6 -4 -3 38 4 46 2 67 -6 67 -16 0 -18 -64 -9 -230 4 -58 3 -77 -2
-50 -6 34 -8 16 -8 -70 0 -63 5 -131 10 -150 6 -23 6 -47 0 -70 l-11 -35 0 30
c0 17 -4 80 -10 140 -5 61 -7 113 -6 116 2 3 6 76 9 162 4 135 3 157 -10 157
-13 0 -14 -20 -11 -137 4 -103 3 -118 -3 -58 -4 44 -11 106 -15 138 -6 40 -5
57 4 57 6 0 11 17 11 40 0 22 5 40 10 40 6 0 10 33 10 80 0 47 -4 80 -10 80
-6 0 -10 33 -10 79 0 55 -4 81 -12 84 -9 2 -13 23 -12 57 0 37 -2 47 -8 34 -5
-11 -6 14 -4 61 2 53 1 66 -4 40 -10 -59 -13 -31 -20 238 0 9 -9 26 -19 36
-11 11 -22 37 -24 58 -2 21 -5 -16 -5 -82 -1 -228 -2 -249 -11 -240 -10 11
-18 72 -30 260 -5 72 -9 130 -10 130 -1 1 -10 1 -20 2 -29 2 -41 -70 -40 -252
0 -85 -3 -172 -6 -193 -5 -29 -4 -34 5 -22 18 24 7 -148 -13 -190 -9 -19 -18
-57 -20 -85 -2 -29 -4 -13 -5 40 -1 61 1 85 8 75 7 -11 10 4 11 50 1 50 3 59
10 40 7 -23 8 -24 6 -2 -3 39 -22 29 -25 -13 -7 -80 -20 -54 -21 42 -1 54 -5
145 -10 203 -5 58 -13 196 -17 308 l-7 202 -24 0 c-18 0 -23 6 -24 28 -1 21
-3 18 -11 -15 -10 -47 -32 -60 -25 -15 2 15 2 21 0 15 -3 -7 -9 -13 -15 -13
-8 0 -9 70 -4 233 4 127 9 243 12 257 3 17 0 14 -10 -10 -14 -33 -15 -29 -9
63 l6 97 -207 0 -206 0 0 -959z m397 727 c-3 -7 -5 -2 -5 12 0 14 2 19 5 13 2
-7 2 -19 0 -25z m240 -680 c-3 -7 -5 -2 -5 12 0 14 2 19 5 13 2 -7 2 -19 0
-25z m150 -595 c-2 -16 -4 -5 -4 22 0 28 2 40 4 28 2 -13 2 -35 0 -50z m-169
-90 c2 -106 0 -116 -13 -99 -8 11 -14 38 -13 60 l1 41 7 -45 c4 -27 8 -35 8
-19 1 14 -1 48 -5 75 -7 46 -8 47 -14 19 -6 -29 -7 -29 -8 8 0 20 3 37 8 37 5
0 11 9 14 20 10 39 13 18 15 -97z m169 -25 c-3 -8 -6 -5 -6 6 -1 11 2 17 5 13
3 -3 4 -12 1 -19z m-210 -80 c-3 -8 -6 -5 -6 6 -1 11 2 17 5 13 3 -3 4 -12 1
-19z m220 -70 c-2 -18 -4 -4 -4 32 0 36 2 50 4 33 2 -18 2 -48 0 -65z m-158
-32 c1 -55 -5 -42 -12 24 -3 34 -2 47 3 35 5 -11 9 -38 9 -59z m-52 22 c-3 -8
-6 -5 -6 6 -1 11 2 17 5 13 3 -3 4 -12 1 -19z m300 -315 c-3 -10 -5 -2 -5 17
0 19 2 27 5 18 2 -10 2 -26 0 -35z m20 -45 c-2 -13 -4 -3 -4 22 0 25 2 35 4
23 2 -13 2 -33 0 -45z m-533 -17 c-3 -3 -15 6 -27 18 l-22 24 27 -19 c14 -10
24 -21 22 -23z m283 -73 c-3 -7 -5 -2 -5 12 0 14 2 19 5 13 2 -7 2 -19 0 -25z
m249 -14 c-19 -18 -21 -11 -4 19 7 14 13 17 15 10 3 -7 -3 -20 -11 -29z m-239
-101 c-2 -16 -4 -3 -4 27 0 30 2 43 4 28 2 -16 2 -40 0 -55z m212 46 c2 40 10
19 19 -46 7 -49 6 -60 -5 -56 -9 4 -11 16 -7 45 5 30 4 38 -7 36 -8 -2 -14 7
-16 22 l-2 25 8 -25 9 -25 1 24z m48 -151 c-2 -18 -4 -6 -4 27 0 33 2 48 4 33
2 -15 2 -42 0 -60z m-249 -78 c-1 -28 -2 -25 -8 15 -5 28 -8 66 -8 85 1 28 2
25 8 -15 5 -27 8 -66 8 -85z m189 28 c-2 -13 -4 -5 -4 17 -1 22 1 32 4 23 2
-10 2 -28 0 -40z m-246 -122 c6 15 8 15 8 3 1 -9 -2 -19 -6 -23 -8 -7 -5 -519
3 -566 2 -18 1 -16 -6 5 -16 54 -53 559 -40 563 7 3 7 8 1 15 -9 12 -14 74
-11 137 2 26 8 10 23 -59 15 -66 23 -88 28 -75z m6 42 c-3 -8 -6 -5 -6 6 -1
11 2 17 5 13 3 -3 4 -12 1 -19z m81 -32 c-3 -25 -2 -48 2 -53 7 -8 23 -199 35
-418 3 -55 8 -122 11 -150 3 -30 2 -46 -4 -40 -5 6 -17 100 -26 210 -9 110
-21 236 -26 280 -19 179 -20 191 -11 165 8 -23 9 -22 10 13 1 20 4 37 7 37 4
0 4 -20 2 -44z m234 -191 c2 -88 2 -142 -2 -120 -6 39 -7 39 -18 15 -9 -22
-11 -16 -13 45 -2 66 -2 68 -9 25 -10 -62 -12 -18 -3 61 l7 64 12 -85 12 -85
-1 137 c-1 75 1 129 4 120 3 -9 8 -89 11 -177z m-305 123 c-3 -8 -6 -5 -6 6
-1 11 2 17 5 13 3 -3 4 -12 1 -19z m37 -35 c3 -10 7 -52 10 -93 4 -59 3 -66
-4 -35 -5 22 -10 60 -11 85 -1 42 -2 43 -9 15 -8 -30 -8 -30 -9 8 -1 38 14 51
23 20z m203 -25 c-3 -8 -6 -5 -6 6 -1 11 2 17 5 13 3 -3 4 -12 1 -19z m0 -160
c-3 -8 -6 -5 -6 6 -1 11 2 17 5 13 3 -3 4 -12 1 -19z m20 -40 c-2 -13 -4 -5
-4 17 -1 22 1 32 4 23 2 -10 2 -28 0 -40z m-21 -20 c4 -7 3 -8 -4 -4 -7 4 -12
0 -12 -10 0 -10 -3 -15 -6 -11 -7 6 2 37 10 37 3 0 8 -5 12 -12z m73 -65 c1
-7 -3 -13 -9 -13 -5 0 -10 15 -9 33 0 27 2 29 9 12 5 -11 9 -26 9 -32z m-808
-215 c11 -21 11 -22 -4 -9 -10 7 -17 17 -17 22 0 15 9 10 21 -13z m189 -9 c0
-6 -4 -7 -10 -4 -5 3 -10 11 -10 16 0 6 5 7 10 4 6 -3 10 -11 10 -16z"/>
<path d="M2735 3024 c-49 -7 -98 -13 -107 -13 -20 -1 -25 -31 -6 -31 27 0 204
34 211 40 17 15 -10 16 -98 4z"/>
<path d="M2780 2990 c-34 -7 -34 -7 -5 -8 17 0 41 4 55 8 33 11 0 11 -50 0z"/>
<path d="M2703 2973 c9 -2 23 -2 30 0 6 3 -1 5 -18 5 -16 0 -22 -2 -12 -5z"/>
<path d="M2643 2963 c9 -2 23 -2 30 0 6 3 -1 5 -18 5 -16 0 -22 -2 -12 -5z"/>
<path d="M2598 2953 c7 -3 16 -2 19 1 4 3 -2 6 -13 5 -11 0 -14 -3 -6 -6z"/>
<path d="M4340 2780 c0 -3 7 -30 15 -60 18 -67 20 -93 5 -70 -7 11 -10 11 -10
2 0 -7 -4 -10 -10 -7 -6 4 -10 -6 -10 -22 0 -22 -2 -25 -10 -13 -9 13 -10 13
-10 0 0 -8 5 -31 11 -50 6 -19 12 -44 14 -55 2 -11 17 -89 34 -174 17 -85 31
-158 31 -163 0 -21 -18 4 -23 32 -4 16 -12 30 -19 30 -9 0 -9 -3 0 -12 7 -7
12 -22 12 -34 0 -12 10 -29 23 -38 19 -15 20 -16 2 -11 -11 4 -24 7 -30 8 -9
2 -17 7 -50 36 -9 7 -19 11 -21 8 -3 -3 4 -14 15 -24 39 -33 114 -113 129
-136 7 -12 -5 -2 -27 23 -42 47 -55 48 -21 0 27 -37 42 -80 29 -80 -5 0 -13 8
-17 18 -13 31 -76 132 -83 132 -4 0 -5 -10 -1 -22 3 -12 1 -19 -5 -15 -5 4
-10 -6 -10 -23 0 -16 4 -27 8 -25 7 5 21 -36 15 -42 -2 -2 -27 26 -55 62 -30
38 -59 65 -70 65 -10 0 -24 7 -31 15 -11 13 -15 13 -21 3 -15 -24 -10 -58 9
-58 37 -1 96 -79 150 -200 29 -64 30 -69 33 -260 1 -107 3 -213 3 -235 0 -22
-6 -104 -13 -182 l-13 -143 31 -50 c17 -27 27 -50 23 -50 -23 -2 53 -30 108
-41 214 -42 225 -45 228 -66 4 -27 -45 -191 -98 -329 -61 -156 -80 -214 -80
-239 0 -11 -9 -61 -19 -110 -10 -50 -21 -109 -24 -132 -4 -37 -3 -43 14 -43
22 0 23 4 9 30 -18 34 34 277 81 374 11 22 19 44 19 48 0 5 10 30 21 56 12 26
25 58 30 72 l7 25 2 -25 c1 -21 4 -17 20 20 l19 45 0 -78 c1 -74 2 -78 21 -72
17 5 24 -1 38 -34 9 -22 21 -41 26 -41 5 0 6 190 2 458 -7 439 -3 582 15 582
5 0 6 -38 2 -87 -5 -49 -8 -131 -8 -183 1 -182 23 -791 29 -797 3 -4 7 9 7 28
l2 34 7 -40 c12 -69 15 548 4 846 -4 118 -3 182 4 195 10 18 11 18 21 -6 8
-21 10 -15 10 36 1 46 6 68 21 85 l19 24 2 -55 c1 -30 5 -68 9 -85 6 -21 7
-10 5 35 -2 36 -4 87 -4 114 l-1 49 -31 -44 c-74 -104 -225 -241 -319 -289
-55 -28 -143 -33 -148 -9 -2 12 8 18 39 23 46 7 58 19 101 100 72 137 109 238
129 361 7 46 8 45 5 -20 -2 -42 -14 -102 -30 -149 -15 -43 -25 -80 -23 -82 2
-2 20 29 40 69 34 67 37 82 37 155 0 44 -4 83 -9 86 -5 3 -12 26 -15 51 -4 25
-20 84 -35 132 -32 100 -41 93 -41 -32 0 -45 -7 -120 -15 -166 -15 -88 -88
-320 -80 -259 2 19 6 85 9 145 l5 110 -18 -80 c-26 -108 -29 -118 -80 -212
-40 -74 -61 -100 -61 -74 0 5 22 55 49 112 28 57 59 138 70 179 23 84 39 237
30 290 -5 35 -5 35 -13 -15 -14 -91 -46 -215 -62 -243 -8 -15 -13 -18 -9 -7
43 136 51 238 30 400 -23 184 -50 312 -95 447 -33 101 -59 165 -60 148z m30
-800 c-1 -8 -9 1 -20 20 -25 46 -25 63 0 25 11 -16 20 -37 20 -45z m54 -139
c-7 -7 -35 22 -51 53 -14 28 -12 28 20 -9 19 -22 33 -42 31 -44z m-67 -98 c-3
-10 -5 -2 -5 17 0 19 2 27 5 18 2 -10 2 -26 0 -35z m86 -88 c-3 -9 -8 -14 -10
-11 -3 3 -2 9 2 15 9 16 15 13 8 -4z m84 -27 c-3 -8 -6 -5 -6 6 -1 11 2 17 5
13 3 -3 4 -12 1 -19z m-3 -232 c-3 -15 -8 -25 -11 -23 -2 3 -1 17 3 31 3 15 8
25 11 23 2 -3 1 -17 -3 -31z m-137 -288 c-3 -7 -5 -2 -5 12 0 14 2 19 5 13 2
-7 2 -19 0 -25z"/>
<path d="M2881 2614 c0 -11 3 -14 6 -6 3 7 2 16 -1 19 -3 4 -6 -2 -5 -13z"/>
<path d="M2893 2500 c0 -25 2 -35 4 -22 2 12 2 32 0 45 -2 12 -4 2 -4 -23z"/>
<path d="M702 2475 c0 -16 2 -22 5 -12 2 9 2 23 0 30 -3 6 -5 -1 -5 -18z"/>
<path d="M1635 2331 c-8 -141 11 -613 26 -646 5 -12 6 58 3 175 -4 107 -8 198
-11 202 -2 4 -4 95 -4 203 0 107 -2 195 -3 195 -2 0 -7 -58 -11 -129z"/>
<path d="M2903 2345 c0 -44 2 -61 4 -37 2 23 2 59 0 80 -2 20 -4 1 -4 -43z"/>
<path d="M2351 2344 c-2 -79 -93 -283 -184 -418 -15 -21 -25 -42 -22 -45 4 -8
-27 -131 -43 -171 -16 -38 -14 -8 3 40 19 54 19 85 1 50 -19 -35 -39 -127 -32
-146 3 -8 2 -12 -4 -9 -6 3 -10 -5 -10 -19 0 -14 -11 -56 -25 -94 -30 -82 -32
-112 -5 -60 11 20 25 40 31 44 8 4 8 1 1 -12 -13 -25 -26 -134 -14 -114 5 8
12 35 16 60 8 58 61 138 153 233 85 88 87 91 107 191 28 136 28 135 -61 74
-105 -72 -107 -73 -98 -57 4 8 18 28 30 44 12 17 35 55 50 85 15 30 33 58 39
62 6 4 8 8 4 8 -4 0 6 22 22 49 17 26 30 59 31 72 0 21 1 22 8 5 7 -18 8 -18
14 -2 9 23 7 104 -3 136 -8 24 -8 24 -9 -6z"/>
<path d="M3170 2341 c0 -16 4 -31 8 -33 5 -1 21 -42 35 -90 15 -48 31 -89 36
-92 8 -5 -23 106 -54 197 -19 54 -25 59 -25 18z"/>
<path d="M2900 2233 c0 -6 -17 -14 -37 -16 l-38 -4 37 -1 c34 -2 37 -5 40 -34
l3 -33 6 38 c3 20 1 43 -3 50 -6 9 -8 9 -8 0z"/>
<path d="M4820 2153 c-1 -61 -6 -116 -24 -253 l-6 -45 15 50 c16 51 34 315 21
315 -3 0 -6 -30 -6 -67z"/>
<path d="M2356 2158 c-10 -50 -14 -140 -6 -132 5 5 11 42 13 82 5 71 2 93 -7
50z"/>
<path d="M4231 2157 c-1 -14 37 -83 53 -96 22 -19 20 -8 -6 32 -13 19 -28 43
-35 53 -6 11 -12 15 -12 11z"/>
<path d="M2720 2130 c0 -5 7 -10 16 -10 8 0 12 5 9 10 -3 6 -10 10 -16 10 -5
0 -9 -4 -9 -10z"/>
<path d="M2785 2131 l-30 -7 25 -14 c30 -16 80 -62 80 -73 0 -5 -20 8 -45 28
-31 26 -50 35 -62 30 -12 -5 -14 -9 -6 -12 7 -2 9 -11 6 -18 -4 -11 -10 -12
-23 -5 -19 10 -80 3 -80 -9 0 -4 5 -12 12 -19 9 -9 9 -12 0 -12 -7 0 -15 7
-19 16 -4 12 -14 14 -43 9 -45 -8 -74 15 -43 35 33 21 -34 1 -103 -30 -58 -26
-63 -31 -69 -67 -4 -21 -12 -56 -17 -78 -5 -22 -10 -48 -11 -57 -1 -10 -5 -18
-9 -18 -4 0 -8 -5 -8 -11 0 -6 21 1 46 16 l46 27 30 -30 30 -29 -25 -74 c-26
-76 -41 -148 -52 -256 -5 -53 -4 -63 10 -63 8 0 15 9 15 20 0 10 6 23 14 27 7
4 22 24 32 43 l19 35 6 -40 6 -40 2 38 c1 30 9 46 32 68 54 50 64 42 76 -65
12 -97 33 -156 58 -156 25 0 27 19 15 146 -10 114 -13 128 -36 147 -15 14 -21
27 -16 35 16 23 39 2 48 -45 7 -34 15 -48 32 -54 20 -8 22 -5 23 24 l0 32 16
-40 c8 -22 16 -67 18 -100 2 -33 4 -64 4 -70 1 -5 7 1 14 15 7 14 10 32 6 40
-3 8 -13 49 -22 90 -8 41 -19 90 -26 109 -16 50 3 25 24 -32 10 -26 19 -46 21
-44 5 5 -27 100 -37 111 -5 6 -9 17 -9 25 1 27 40 -56 56 -120 9 -34 14 -70
11 -80 -3 -10 1 -40 8 -66 l13 -48 1 65 c0 66 -16 135 -63 270 -26 74 -32 110
-19 110 4 0 22 -15 41 -32 32 -32 33 -32 24 -7 -6 14 -20 41 -31 60 -12 19
-21 37 -21 41 0 11 124 5 140 -7 8 -7 26 -15 38 -18 20 -5 18 0 -15 30 -21 19
-30 30 -20 23 14 -10 17 -10 17 4 0 9 -4 16 -10 16 -5 0 -10 5 -10 12 0 7 15
-2 33 -20 43 -42 60 -41 20 1 -20 21 -29 40 -27 55 2 12 -1 22 -8 22 -6 0 -25
11 -42 23 -17 13 -44 31 -61 40 l-30 17 70 -1 c87 -1 97 1 65 11 -30 10 -114
10 -155 1z m152 -116 c0 -17 -13 -20 -21 -6 -4 5 0 12 6 14 7 3 13 6 14 6 0 1
1 -6 1 -14z m-250 -1 c-3 -4 5 -23 20 -43 l25 -36 -31 34 c-27 30 -32 51 -14
51 4 0 4 -3 0 -6z m193 -61 c12 -12 7 -11 -20 2 -45 22 -52 29 -20 20 14 -4
32 -14 40 -22z m-242 -50 c-2 -13 3 -17 17 -16 14 2 25 -8 38 -33 16 -33 16
-38 2 -54 -8 -9 -15 -24 -15 -33 0 -21 -3 -21 -40 -2 -22 11 -30 23 -30 43 0
17 -3 22 -8 15 -5 -8 -12 -3 -19 17 -7 18 -8 32 -2 36 5 3 9 2 8 -3 -1 -4 -1
-15 0 -23 1 -12 4 -12 12 3 5 9 7 22 4 28 -7 11 12 39 27 39 5 0 8 -8 6 -17z
m-99 -38 c-28 -41 -49 -45 -49 -10 0 20 8 29 33 40 17 7 34 12 36 9 2 -2 -7
-19 -20 -39z m191 -19 c-15 -15 -34 9 -26 31 7 17 8 17 22 -1 9 -13 11 -23 4
-30z m-177 -21 c-16 -22 -43 -41 -43 -30 0 6 50 55 56 55 3 0 -3 -11 -13 -25z
m10 -49 c4 -11 -1 -13 -24 -11 -16 2 -27 0 -24 -4 3 -5 -2 -12 -10 -15 -13 -5
-14 -2 -5 15 8 14 17 18 32 13 14 -4 18 -2 14 5 -4 6 -3 11 2 11 6 0 12 -6 15
-14z m165 -49 c2 -28 -1 -37 -12 -37 -18 0 -31 42 -22 66 10 27 31 9 34 -29z
m-186 1 c-7 -7 -12 -8 -12 -2 0 6 3 14 7 17 3 4 9 5 12 2 2 -3 -1 -11 -7 -17z
m63 12 c-3 -5 -10 -10 -16 -10 -5 0 -9 5 -9 10 0 6 7 10 16 10 8 0 12 -4 9
-10z m-126 -49 c-6 -18 -13 -30 -15 -28 -2 2 1 18 7 36 6 18 13 30 15 28 2 -2
-1 -18 -7 -36z m61 -22 c0 -26 -3 -30 -22 -27 -17 2 -24 11 -26 31 -3 23 0 27
22 27 22 0 26 -4 26 -31z m128 -159 c12 -63 3 -123 -12 -84 -4 10 -10 47 -13
81 -8 82 11 84 25 3z"/>
<path d="M2585 2063 c-24 -11 -25 -13 -5 -8 14 4 33 8 42 9 24 3 31 12 10 13
-9 0 -30 -6 -47 -14z"/>
<path d="M4126 2058 c-3 -7 -7 -26 -9 -43 -3 -16 -8 -41 -11 -55 -5 -22 -5
-22 5 3 18 46 56 31 66 -27 5 -30 2 -41 -16 -57 -14 -14 -20 -27 -16 -38 4 -9
9 -23 12 -32 3 -11 12 -14 29 -11 20 4 24 0 24 -21 0 -14 -5 -29 -10 -32 -6
-4 -8 -15 -5 -26 12 -36 -6 -19 -26 25 -15 35 -23 43 -39 39 -17 -5 -20 0 -20
30 0 22 6 37 15 41 12 4 11 9 -8 28 -13 14 -25 19 -29 13 -11 -15 -9 -47 2
-40 18 11 11 -10 -9 -27 -11 -9 -23 -34 -27 -55 -4 -21 -12 -49 -19 -63 -22
-45 -26 -94 -10 -115 14 -20 14 -19 15 3 0 12 6 22 14 22 14 0 17 -11 31 -92
10 -64 22 -50 13 15 -8 57 -3 125 9 114 9 -10 30 -129 26 -155 l-3 -27 11 25
c7 16 9 65 4 140 -5 105 -4 113 10 96 8 -11 15 -25 15 -32 0 -6 10 -18 21 -26
18 -11 23 -28 29 -98 l8 -85 -1 88 c-2 65 1 86 10 83 7 -3 15 -2 17 3 9 14
-16 155 -29 165 -7 6 -18 29 -24 51 -13 50 -14 58 -1 50 14 -9 11 22 -8 80
-13 38 -22 51 -40 53 -12 2 -24 -3 -26 -10z m44 -42 c0 -8 -4 -17 -9 -21 -12
-7 -24 12 -16 25 9 15 25 12 25 -4z m13 -186 c-7 -28 -13 -25 -13 6 0 14 4 23
9 20 5 -3 7 -15 4 -26z"/>
<path d="M4101 2044 c0 -11 3 -14 6 -6 3 7 2 16 -1 19 -3 4 -6 -2 -5 -13z"/>
<path d="M3252 2025 c0 -16 2 -22 5 -12 2 9 2 23 0 30 -3 6 -5 -1 -5 -18z"/>
<path d="M566 2025 c-3 -9 -6 -22 -5 -28 0 -7 5 -1 10 12 5 13 8 26 5 28 -2 2
-6 -3 -10 -12z"/>
<path d="M3300 1985 c0 -17 53 -136 58 -130 2 2 -6 30 -18 62 -23 58 -40 86
-40 68z"/>
<path d="M3242 1935 c0 -16 2 -22 5 -12 2 9 2 23 0 30 -3 6 -5 -1 -5 -18z"/>
<path d="M5045 1883 c-16 -43 -43 -109 -60 -147 -19 -41 -30 -78 -27 -92 4
-23 5 -23 18 -7 16 22 17 18 3 -27 -18 -62 -8 -315 11 -279 24 44 105 629 87
629 -2 0 -17 -35 -32 -77z"/>
<path d="M2084 1913 c-12 -52 -126 -268 -218 -413 -51 -80 -107 -173 -126
-207 -19 -34 -38 -60 -42 -57 -12 8 -10 -41 7 -152 19 -118 49 -232 58 -217 4
7 3 22 -2 35 -9 20 -28 111 -46 221 -11 69 3 120 51 178 24 30 56 77 70 104
31 59 50 82 34 41 -14 -37 -5 -47 11 -13 16 36 26 26 33 -35 5 -44 1 -71 -29
-162 -19 -60 -33 -111 -31 -113 2 -2 31 76 64 174 33 98 76 225 96 283 32 96
65 225 81 323 7 43 -1 50 -11 10z"/>
<path d="M3230 1828 c0 -28 2 -49 4 -47 8 9 13 99 5 99 -5 0 -9 -23 -9 -52z"/>
<path d="M4036 1858 c-13 -61 -16 -102 -7 -88 11 18 26 110 17 110 -3 0 -8
-10 -10 -22z"/>
<path d="M3371 1847 c-1 -15 10 -53 23 -85 13 -31 36 -92 51 -134 15 -43 32
-78 36 -78 14 0 10 46 -6 77 -8 15 -30 69 -50 118 -56 139 -54 135 -54 102z"/>
<path d="M5336 1861 c-3 -4 -13 -64 -21 -132 -29 -228 -53 -345 -99 -489 -21
-66 -19 -37 5 70 11 52 22 137 24 190 2 52 8 131 13 175 6 44 6 87 2 95 -4 8
-5 31 -3 50 4 23 2 32 -4 25 -6 -5 -16 -44 -22 -85 -21 -133 -55 -255 -106
-385 -4 -11 -19 -47 -31 -79 -13 -33 -24 -65 -24 -72 0 -22 -33 -83 -42 -78
-4 3 -5 -3 -1 -12 4 -12 3 -15 -5 -10 -17 10 -15 -16 13 -188 41 -242 143
-665 221 -918 5 -17 26 -18 260 -18 l254 0 0 558 c0 570 -1 582 -37 582 -13 0
-37 17 -78 55 -12 11 -35 27 -51 37 -16 9 -39 33 -51 55 -13 21 -27 37 -33 35
-5 -1 -10 10 -11 25 0 19 -10 0 -28 -54 -15 -45 -31 -86 -36 -90 -4 -5 -5 0
-2 9 3 9 9 55 13 102 7 87 5 99 -36 192 -10 22 -25 74 -34 115 -8 40 -20 75
-26 77 -5 2 -10 22 -10 43 0 22 -4 38 -8 35 -5 -3 -5 17 -2 45 6 49 6 56 -4
40z m11 -233 c-3 -8 -6 -5 -6 6 -1 11 2 17 5 13 3 -3 4 -12 1 -19z m160 -340
c-3 -8 -6 -5 -6 6 -1 11 2 17 5 13 3 -3 4 -12 1 -19z"/>
<path d="M4771 1804 c0 -11 3 -14 6 -6 3 7 2 16 -1 19 -3 4 -6 -2 -5 -13z"/>
<path d="M3271 1794 c0 -11 3 -14 6 -6 3 7 2 16 -1 19 -3 4 -6 -2 -5 -13z"/>
<path d="M4756 1765 c-9 -26 -7 -32 5 -12 6 10 9 21 6 23 -2 3 -7 -2 -11 -11z"/>
<path d="M3223 1710 c0 -36 2 -50 4 -32 2 17 2 47 0 65 -2 17 -4 3 -4 -33z"/>
<path d="M3261 1734 c0 -11 3 -14 6 -6 3 7 2 16 -1 19 -3 4 -6 -2 -5 -13z"/>
<path d="M4748 1622 c-14 -21 -45 -60 -69 -86 -23 -26 -60 -78 -81 -116 l-37
-70 32 16 c17 9 53 35 79 56 44 36 50 48 78 136 16 52 28 97 26 99 -2 2 -15
-14 -28 -35z"/>
<path d="M1666 1480 c3 -80 10 -163 14 -185 5 -24 6 19 3 105 -3 80 -9 163
-14 185 -5 24 -6 -17 -3 -105z"/>
<path d="M5091 1584 c0 -11 3 -14 6 -6 3 7 2 16 -1 19 -3 4 -6 -2 -5 -13z"/>
<path d="M1435 1385 c2 -110 9 -261 15 -335 6 -74 17 -238 25 -365 24 -384 56
-685 73 -685 12 0 13 11 8 55 -13 112 -56 569 -55 589 0 12 2 17 4 11 6 -14
63 -457 70 -540 8 -92 13 -115 26 -115 7 0 8 19 5 53 -3 28 -13 122 -21 207
-15 146 -46 338 -66 405 -8 28 -17 97 -55 425 -9 74 -19 216 -24 315 l-8 180
3 -200z"/>
<path d="M3992 1555 c0 -16 2 -22 5 -12 2 9 2 23 0 30 -3 6 -5 -1 -5 -18z"/>
<path d="M5076 1524 c-4 -20 -5 -38 -3 -40 3 -3 8 11 11 32 4 20 5 38 3 40 -3
3 -8 -11 -11 -32z"/>
<path d="M3213 1470 c0 -30 2 -43 4 -27 2 15 2 39 0 55 -2 15 -4 2 -4 -28z"/>
<path d="M5451 1480 c0 -8 4 -24 9 -35 5 -13 9 -14 9 -5 0 8 -4 24 -9 35 -5
13 -9 14 -9 5z"/>
<path d="M4252 1399 c-1 -36 -4 -88 -7 -115 l-5 -49 11 40 c5 22 8 74 6 115
l-3 75 -2 -66z"/>
<path d="M3451 1389 c-6 -28 -10 -54 -7 -56 2 -2 9 19 15 48 6 28 10 54 7 56
-2 2 -9 -19 -15 -48z"/>
<path d="M3534 1412 c-8 -12 -9 -39 -5 -78 l7 -59 8 67 c9 75 6 96 -10 70z"/>
<path d="M5031 1373 c-7 -21 -15 -45 -18 -53 -4 -10 -2 -12 5 -5 12 12 36 85
30 91 -3 2 -10 -13 -17 -33z"/>
<path d="M2847 1364 c-4 -4 -7 -28 -6 -53 l1 -46 9 45 c9 48 8 66 -4 54z"/>
<path d="M4951 1299 c0 -41 4 -83 9 -94 5 -12 6 17 3 70 -6 111 -13 125 -12
24z"/>
<path d="M2423 1332 c-9 -6 -9 -18 -1 -52 16 -66 23 -66 23 1 0 61 -1 64 -22
51z"/>
<path d="M1947 1286 c-11 -27 42 -112 114 -181 56 -55 60 -57 44 -25 -10 19
-28 64 -41 100 l-23 65 6 -50 6 -49 -31 32 c-34 35 -51 63 -61 101 -6 22 -8
23 -14 7z"/>
<path d="M260 1245 c0 -2 10 -10 23 -16 20 -11 21 -11 8 4 -13 16 -31 23 -31
12z"/>
<path d="M1137 1243 c-13 -12 -7 -23 13 -23 11 0 20 7 20 15 0 15 -21 21 -33
8z"/>
<path d="M1219 1180 c-3 -51 -3 -61 5 -145 3 -33 12 -170 21 -305 8 -135 20
-297 25 -360 5 -63 12 -172 16 -242 6 -126 7 -128 30 -128 29 0 30 14 9 185
-8 66 -22 237 -30 380 -9 143 -20 298 -25 345 -5 47 -14 126 -19 176 -6 50
-15 102 -20 115 -9 21 -10 19 -12 -21z"/>
<path d="M4029 1195 c5 -11 17 -29 26 -40 l16 -20 -10 20 c-5 11 -17 29 -26
40 l-16 20 10 -20z"/>
<path d="M3331 1140 c-24 -22 -40 -40 -35 -40 10 1 52 37 73 63 21 27 10 20
-38 -23z"/>
<path d="M4951 1164 c0 -11 3 -14 6 -6 3 7 2 16 -1 19 -3 4 -6 -2 -5 -13z"/>
<path d="M1200 1157 c0 -13 -9 -17 -40 -17 -22 0 -40 -4 -40 -10 0 -5 18 -10
39 -10 31 0 41 4 46 21 4 11 4 23 1 26 -3 4 -6 -1 -6 -10z"/>
<path d="M4961 1123 c-11 -12 -13 -45 -8 -172 8 -184 73 -776 103 -924 l6 -27
89 0 c60 0 89 4 89 11 0 7 -16 64 -34 128 -73 243 -142 550 -198 869 -12 72
-25 132 -28 132 -3 -1 -11 -8 -19 -17z"/>
<path d="M1202 1080 c0 -14 2 -19 5 -12 2 6 2 18 0 25 -3 6 -5 1 -5 -13z"/>
<path d="M4220 1011 c14 -11 30 -21 35 -21 11 0 -7 14 -40 31 -13 7 -12 3 5
-10z"/>
<path d="M2786 985 c-9 -26 -7 -32 5 -12 6 10 9 21 6 23 -2 3 -7 -2 -11 -11z"/>
<path d="M4290 976 c0 -2 9 -6 20 -9 11 -3 18 -1 14 4 -5 9 -34 13 -34 5z"/>
<path d="M1690 935 c0 -24 23 -154 43 -245 17 -75 22 -59 7 20 -15 78 -5 72
19 -12 30 -101 73 -219 78 -214 2 2 -12 52 -31 112 -19 60 -40 129 -46 154
-32 132 -70 233 -70 185z"/>
<path d="M4917 750 c4 -91 8 -297 8 -458 l0 -292 53 0 c46 0 53 2 48 18 -14
45 -74 532 -96 766 -6 66 -13 122 -16 125 -3 3 -1 -69 3 -159z"/>
<path d="M2615 860 c3 -5 8 -10 11 -10 2 0 4 5 4 10 0 6 -5 10 -11 10 -5 0 -7
-4 -4 -10z"/>
<path d="M3424 809 c-10 -11 -32 -27 -49 -34 -41 -18 -81 -52 -73 -60 10 -10
67 27 113 74 21 23 37 41 34 41 -3 0 -14 -9 -25 -21z"/>
<path d="M1012 715 c0 -16 2 -22 5 -12 2 9 2 23 0 30 -3 6 -5 -1 -5 -18z"/>
<path d="M1752 590 c0 -14 2 -19 5 -12 2 6 2 18 0 25 -3 6 -5 1 -5 -13z"/>
<path d="M1012 315 c0 -16 2 -22 5 -12 2 9 2 23 0 30 -3 6 -5 -1 -5 -18z"/>
<path d="M1951 249 c-2 -10 89 -213 100 -224 5 -5 0 13 -11 40 -30 71 -88 191
-89 184z"/>
<path d="M1664 156 c1 -30 4 -52 8 -50 3 2 10 -21 13 -51 4 -30 11 -55 16 -55
5 0 9 5 9 10 0 13 -40 193 -44 197 -1 2 -2 -21 -2 -51z"/>
<path d="M0 68 l0 -68 62 0 62 0 -30 33 c-17 17 -45 48 -62 67 l-32 35 0 -67z"/>
<path d="M1042 95 c0 -16 2 -22 5 -12 2 9 2 23 0 30 -3 6 -5 -1 -5 -18z"/>
</g>
</svg>
